<?xml version="1.0" standalone="no"?>
<!DOCTYPE svg PUBLIC "-//W3C//DTD SVG 20010904//EN"
 "http://www.w3.org/TR/2001/REC-SVG-20010904/DTD/svg10.dtd">
<svg version="1.0" xmlns="http://www.w3.org/2000/svg"
 width="440.000000pt" height="440.000000pt" viewBox="0 0 440.000000 440.000000"
 preserveAspectRatio="xMidYMid meet">

<g transform="translate(0.000000,440.000000) scale(0.100000,-0.100000)"
fill="#000000" stroke="none">
<path d="M0 2200 l0 -2200 2200 0 2200 0 0 2200 0 2200 -2200 0 -2200 0 0
-2200z m962 1829 c92 -19 177 -66 249 -138 199 -199 199 -503 0 -702 -199
-199 -499 -199 -701 0 -200 197 -201 503 -1 702 123 122 288 172 453 138z
m2680 0 c92 -19 177 -66 249 -138 199 -199 199 -503 0 -702 -199 -199 -499
-199 -701 0 -200 197 -201 503 -1 702 123 122 288 172 453 138z m-2680 -1340
c226 -47 398 -259 398 -489 0 -270 -230 -500 -500 -500 -269 0 -500 231 -500
500 0 225 164 433 383 486 66 16 152 17 219 3z m2680 0 c226 -47 398 -259 398
-489 0 -270 -230 -500 -500 -500 -269 0 -500 231 -500 500 0 225 164 433 383
486 66 16 152 17 219 3z m-2680 -1340 c92 -19 177 -66 249 -138 199 -199 199
-503 0 -702 -199 -199 -499 -199 -701 0 -200 197 -201 503 -1 702 123 122 288
172 453 138z m2680 0 c92 -19 177 -66 249 -138 199 -199 199 -503 0 -702 -199
-199 -499 -199 -701 0 -200 197 -201 503 -1 702 123 122 288 172 453 138z"/>
</g>
</svg>
