<?xml version="1.0" standalone="no"?>
<!DOCTYPE svg PUBLIC "-//W3C//DTD SVG 20010904//EN"
 "http://www.w3.org/TR/2001/REC-SVG-20010904/DTD/svg10.dtd">
<svg version="1.0" xmlns="http://www.w3.org/2000/svg"
 width="640.000000pt" height="640.000000pt" viewBox="0 0 640.000000 640.000000"
 preserveAspectRatio="xMidYMid meet">

<g transform="translate(0.000000,640.000000) scale(0.100000,-0.100000)"
fill="#000000" stroke="none">
<path d="M1230 5860 c-246 -38 -446 -219 -506 -459 -23 -91 -15 -253 15 -341
51 -145 158 -270 291 -340 357 -185 786 10 881 400 18 76 15 222 -6 295 -58
204 -231 378 -426 428 -75 20 -183 27 -249 17z"/>
<path d="M4995 5859 c-236 -36 -433 -210 -500 -444 -21 -73 -24 -219 -6 -295
67 -277 309 -469 593 -470 103 0 167 14 267 61 68 32 98 54 165 121 88 89 132
165 161 273 19 75 19 223 0 300 -76 299 -377 500 -680 454z"/>
<path d="M1181 3790 c-167 -45 -316 -169 -389 -322 -48 -99 -62 -161 -62 -271
0 -285 202 -534 481 -593 190 -41 412 34 552 186 78 84 124 172 153 295 l7 30
7 -25 c10 -38 23 108 15 172 -31 249 -183 435 -425 520 -84 30 -244 34 -339 8z"/>
<path d="M4932 3790 c-99 -26 -184 -73 -261 -145 -131 -122 -193 -263 -194
-440 -1 -160 50 -296 155 -410 239 -261 634 -270 884 -20 79 79 143 193 163
293 16 76 13 214 -5 285 -40 153 -165 314 -301 385 -133 70 -298 89 -441 52z"/>
<path d="M4994 1921 c-234 -37 -433 -215 -499 -446 -21 -73 -24 -219 -6 -295
68 -278 310 -469 596 -470 167 0 307 60 430 184 122 123 176 253 176 419 0
111 -15 177 -64 277 -71 147 -214 266 -374 313 -65 20 -193 28 -259 18z"/>
<path d="M1265 1900 c-305 -34 -535 -294 -535 -605 0 -277 179 -508 441 -570
82 -19 206 -19 288 0 197 47 383 219 438 405 29 100 33 109 28 55 -4 -36 -3
-45 5 -34 19 32 23 179 6 259 -66 315 -355 526 -671 490z"/>
</g>
</svg>
